<?xml version="1.0" encoding="UTF-8" standalone="no"?>
<!-- Created with Inkscape (http://www.inkscape.org/) -->

<svg
   width="600mm"
   height="240mm"
   viewBox="0 0 600 240"
   version="1.1"
   id="svg2317"
   inkscape:version="1.2.2 (732a01da63, 2022-12-09)"
   sodipodi:docname="banner_1_draft_2_no_background.svg"
   inkscape:export-filename="banner_1_draft_1.png"
   inkscape:export-xdpi="25.4"
   inkscape:export-ydpi="25.4"
   xmlns:inkscape="http://www.inkscape.org/namespaces/inkscape"
   xmlns:sodipodi="http://sodipodi.sourceforge.net/DTD/sodipodi-0.dtd"
   xmlns="http://www.w3.org/2000/svg"
   xmlns:svg="http://www.w3.org/2000/svg">
  <g
     inkscape:groupmode="layer"
     id="layer8"
     inkscape:label="Background" />
  <g
     id="g2824"
     transform="matrix(0.34011035,0,0,0.34011035,204.37528,113.33407)">
    <g
       id="layer5"
       inkscape:label="Ear Right"
       inkscape:groupmode="layer"
       style="display:inline;stroke:none"
       transform="matrix(0.94417999,0,0,0.78168357,-211.2644,-347.05192)">
      <path
         id="path1025-5"
         style="fill:#828698;fill-opacity:1;stroke:none;stroke-width:0.377953"
         d="m 636.19904,1110.7811 c 0,0 -0.4735,-124.59783 10.58724,-185.55458 11.19457,-61.69436 55.94873,-179.59217 55.94873,-179.59217 0,0 39.13388,26.46996 61.31134,33.66401 34.47701,11.18385 94.05139,30.6244 107.88531,13.58109 7.20451,-8.87591 -159.7918,-201.89684 -189.83856,-200.02972 -20.02964,1.24465 -99.86842,123.3826 -130.80906,195.39747 -39.97282,93.03743 -66.7878,296.3503 -66.7878,296.3503 z"
         sodipodi:nodetypes="cacassacc" />
      <path
         id="path1286"
         style="fill:#ff9579;fill-opacity:0.782506;stroke:none;stroke-width:0.300425"
         d="m 653.30859,706.05469 c -17.2904,26.31218 -33.69302,56.20349 -45.36914,82.10742 -34.81223,77.23233 -72.56669,273.91359 -72.56669,273.91359 l 54.16191,3.1424 c 0,0 25.28953,-145.28564 38.56494,-194.55599 12.89406,-47.85504 53.44583,-134.44203 56.54492,-141.0332 -9.16596,-6.32351 -18.10718,-12.98052 -26.83203,-19.89453 -1.51628,-1.20158 -3.00113,-2.45321 -4.50391,-3.67969 z"
         sodipodi:nodetypes="csccscsc" />
    </g>
    <g
       inkscape:groupmode="layer"
       id="layer4"
       inkscape:label="Ear Left"
       style="display:inline;stroke:none"
       transform="matrix(0.94417999,0,0,0.78168357,-211.2644,-347.05192)">
      <path
         id="path1025"
         style="opacity:1;fill:#828698;fill-opacity:1;stroke:none;stroke-width:0.377953"
         d="m 344.5102,1108.6161 c 0,0 -27.46633,-124.28543 -33.55347,-187.47885 -7.07661,-73.46556 -12.61346,-148.17481 -3.31259,-221.39202 11.81778,-93.0305 48.74826,-233.9599 74.40884,-271.31593 7.89825,-11.49808 26.91807,12.63655 33.68119,24.83689 2.51349,4.53421 7.16783,236.23576 23.06047,353.11642 12.66306,93.12908 57.41836,276.04989 57.41836,276.04989 z"
         sodipodi:nodetypes="caassacc" />
      <path
         id="path1284"
         style="opacity:1;fill:#ff9579;fill-opacity:0.782506;stroke:none;stroke-width:0.243004"
         d="m 364.3587,1070.4485 c 0,0 -29.01417,-114.75052 -35.24769,-173.40337 -5.78997,-54.47943 -7.02397,-109.99623 -1.84466,-164.34836 6.58089,-69.06035 27.14613,-173.67801 41.43557,-201.40892 4.39824,-8.53549 14.98969,9.38063 18.75583,18.43744 1.39966,3.36593 -2.54858,174.16881 6.59524,260.5712 8.94654,84.53825 47.05407,250.65261 47.05407,250.65261 z"
         sodipodi:nodetypes="caassacc" />
    </g>
  </g>
  <sodipodi:namedview
     id="namedview2319"
     pagecolor="#ffffff"
     bordercolor="#000000"
     borderopacity="0.25"
     inkscape:showpageshadow="2"
     inkscape:pageopacity="0.0"
     inkscape:pagecheckerboard="0"
     inkscape:deskcolor="#d1d1d1"
     inkscape:document-units="mm"
     showgrid="false"
     inkscape:zoom="0.39063903"
     inkscape:cx="901.08763"
     inkscape:cy="569.57954"
     inkscape:window-width="1920"
     inkscape:window-height="1051"
     inkscape:window-x="2391"
     inkscape:window-y="-9"
     inkscape:window-maximized="1"
     inkscape:current-layer="layer3" />
  <defs
     id="defs2314" />
  <g
     inkscape:groupmode="layer"
     id="layer7"
     inkscape:label="Wabbit (text)"
     sodipodi:insensitive="true">
    <g
       inkscape:groupmode="layer"
       id="layer3"
       inkscape:label="WikiWabbit"
       transform="matrix(0.26458333,0,0,0.26458333,141.51571,-7.5053258)">
      <text
         xml:space="preserve"
         style="font-style:normal;font-variant:normal;font-weight:normal;font-stretch:normal;font-size:374.959px;font-family:'AnonymicePro Nerd Font Propo';-inkscape-font-specification:'AnonymicePro Nerd Font Propo, Normal';font-variant-ligatures:normal;font-variant-caps:normal;font-variant-numeric:normal;font-variant-east-asian:normal;opacity:1;fill:#000000;stroke:#000000;stroke-width:0.531438"
         x="-382.06766"
         y="429.98676"
         id="text955"><tspan
           sodipodi:role="line"
           id="tspan953"
           x="-382.06766"
           y="429.98676"
           style="stroke-width:0.531438"><tspan
   style="font-style:normal;font-variant:normal;font-weight:normal;font-stretch:normal;font-size:374.959px;font-family:'Tinos Nerd Font Propo';-inkscape-font-specification:'Tinos Nerd Font Propo, Normal';font-variant-ligatures:normal;font-variant-caps:normal;font-variant-numeric:normal;font-variant-east-asian:normal;stroke-width:0.531438"
   id="tspan10400">iki</tspan><tspan
   style="font-style:normal;font-variant:normal;font-weight:normal;font-stretch:normal;font-size:374.959px;font-family:'Tinos Nerd Font Propo';-inkscape-font-specification:'Tinos Nerd Font Propo, Normal';font-variant-ligatures:normal;font-variant-caps:normal;font-variant-numeric:normal;font-variant-east-asian:normal;stroke-width:0.531438"
   id="tspan2740">abbit</tspan></tspan></text>
    </g>
  </g>
</svg>
